<svg xmlns="http://www.w3.org/2000/svg" width="96" height="96" fill="none" xmlns:v="https://vecta.io/nano"><path d="M47.484 4L4 25.07V70.93L47.484 92 92 70.93V25.07L47.484 4z" fill="#fff" stroke="#293c47" stroke-width="3"/><g fill="#293c47"><path d="M22.397 70V27.109h5.039v19.072l18.018-19.072h6.094L33.149 46.416 53.364 70h-6.592L27.436 46.914V70h-5.039zm38.03-19.248V70h-4.98V27.109h8.994c3.145 0 5.459.166 6.943.498s2.773.879 3.867 1.641c1.367.977 2.432 2.314 3.193 4.014.781 1.699 1.172 3.584 1.172 5.654s-.391 3.955-1.172 5.654c-.762 1.699-1.826 3.037-3.193 4.014-1.094.781-2.383 1.338-3.867 1.67-1.465.332-3.779.498-6.943.498h-1.436-2.578zm0-4.629h2.578c4.375 0 7.314-.508 8.818-1.523 1.523-1.035 2.285-2.832 2.285-5.391 0-2.734-.781-4.658-2.344-5.772-1.543-1.113-4.463-1.67-8.76-1.67h-2.578v14.355z"/><path d="M22.397 70h-.5v.5h.5V70zm0-42.891v-.5h-.5v.5h.5zm5.039 0h.5v-.5h-.5v.5zm0 19.072h-.5v1.257l.864-.914-.364-.343zm18.018-19.072v-.5h-.215l-.148.157.363.343zm6.094 0l.362.345.805-.845h-1.167v.5zM33.149 46.416l-.362-.345-.312.327.294.343.38-.325zM53.364 70v.5h1.087l-.708-.825-.38.325zm-6.592 0l-.383.321.15.179h.233V70zM27.436 46.914l.383-.321-.883-1.055v1.376h.5zm0 23.086v.5h.5V70h-.5zm-4.539 0V27.109h-1V70h1zm-.5-42.391h5.039v-1h-5.039v1zm4.539-.5v19.072h1V27.109h-1zm.864 19.416l18.018-19.072-.727-.687-18.018 19.072.727.687zm17.654-18.916h6.094v-1h-6.094v1zm5.732-.845L32.787 46.071l.724.69L51.91 27.454l-.724-.69zM32.77 46.741l20.215 23.584.759-.651-20.215-23.584-.759.651zM53.364 69.5h-6.592v1h6.592v-1zm-6.209.179L27.82 46.593l-.767.642 19.336 23.086.767-.642zM26.936 46.914V70h1V46.914h-1zm.5 22.586h-5.039v1h5.039v-1zm32.991-18.748v-.5h-.5v.5h.5zm0 19.248v.5h.5V70h-.5zm-4.98 0h-.5v.5h.5V70zm0-42.891v-.5h-.5v.5h.5zm19.805 2.139l.291-.407-.005-.003-.286.41zm3.193 4.014l-.456.205.002.004.454-.209zm0 11.309l-.454-.209-.002.004.456.205zm-7.061 5.684l-.109-.488h-.001l.111.488zm-10.957-4.131h-.5v.5h.5v-.5zM71.823 44.6l.28.414.001-.001-.281-.414zm-.059-11.162l-.292.406.002.002.29-.407zm-11.338-1.67v-.5h-.5v.5h.5zm-.5 18.984V70h1V50.752h-1zm.5 18.748h-4.98v1h4.98v-1zm-4.48.5V27.109h-1V70h1zm-.5-42.391h8.994v-1h-8.994v1zm8.994 0c3.138 0 5.406.167 6.834.486l.218-.976c-1.541-.345-3.901-.51-7.052-.51v1zm6.834.486c1.43.32 2.657.843 3.691 1.563l.572-.821c-1.154-.804-2.505-1.374-4.044-1.718l-.218.976zm3.686 1.56c1.287.92 2.298 2.184 3.028 3.811l.913-.409c-.794-1.771-1.912-3.183-3.359-4.216l-.581.814zm3.03 3.816c.748 1.627 1.126 3.439 1.126 5.445h1c0-2.135-.403-4.092-1.218-5.863l-.909.418zm1.126 5.445c0 2.006-.378 3.819-1.126 5.445l.909.418c.815-1.772 1.218-3.729 1.218-5.863h-1zm-1.128 5.45c-.73 1.627-1.74 2.892-3.028 3.811l.581.814c1.447-1.034 2.565-2.445 3.359-4.216l-.913-.409zm-3.028 3.811c-1.033.738-2.258 1.269-3.686 1.589l.218.976c1.541-.345 2.894-.926 4.049-1.751l-.581-.814zm-3.687 1.589c-1.407.319-3.674.486-6.833.486v1c3.17 0 5.531-.165 7.054-.511l-.221-.975zm-6.833.486h-1.436v1h1.436v-1zm-1.436 0h-2.578v1h2.578v-1zm-2.578-3.629h2.578v-1h-2.578v1zm2.578 0c2.204 0 4.063-.128 5.571-.388 1.5-.259 2.691-.656 3.527-1.221l-.56-.829c-.667.451-1.698.816-3.138 1.064-1.432.247-3.23.373-5.401.373v1zm9.099-1.61c1.71-1.162 2.504-3.15 2.504-5.804h-1c0 2.463-.729 4.068-2.066 4.977l.562.827zm2.504-5.804c0-2.823-.809-4.936-2.554-6.179l-.58.814c1.381.984 2.134 2.718 2.134 5.364h1zm-2.551-6.177c-.855-.617-2.051-1.053-3.546-1.338-1.501-.286-3.339-.426-5.506-.426v1c2.13 0 3.9.138 5.319.409 1.424.272 2.46.67 3.148 1.167l.585-.811zm-9.052-1.764h-2.578v1h2.578v-1zm-3.078.5v14.355h1V31.768h-1z"/></g></svg>