<svg xmlns="http://www.w3.org/2000/svg" width="600" height="200" fill="none" xmlns:v="https://vecta.io/nano"><path fill="#293c47" d="M0 0h600v200H0z"/><path d="M111.984 7L28 51.268v96.464L111.984 192 198 147.732V51.268L111.984 7z" stroke="#f4f6f6" stroke-width="5"/><path d="M56.661 147V54.07h10.918v41.323l39.038-41.323h13.203L79.957 95.901 123.755 147h-14.282L67.579 96.981V147H56.661zm79.797-41.704V147h-10.791V54.07h19.488c6.813 0 11.827.36 15.044 1.079s6.009 1.904 8.379 3.555c2.962 2.116 5.268 5.015 6.918 8.696 1.693 3.682 2.54 7.765 2.54 12.251s-.847 8.569-2.54 12.251c-1.65 3.682-3.956 6.58-6.918 8.697-2.37 1.692-5.163 2.898-8.379 3.618-3.174.719-8.189 1.079-15.044 1.079h-3.111-5.586zm0-10.029h5.586c9.48 0 15.848-1.1 19.107-3.301 3.301-2.243 4.951-6.136 4.951-11.68 0-5.924-1.693-10.093-5.078-12.505-3.343-2.412-9.67-3.618-18.98-3.618h-5.586v31.103zm96.448 34.924h5.962c9.668 0 16.364-.411 20.088-1.235 3.724-.859 6.821-2.31 9.292-4.351 3.223-2.685 5.676-6.14 7.358-10.366 1.683-4.261 2.525-9.131 2.525-14.609 0-5.514-.842-10.348-2.525-14.502-1.647-4.189-4.099-7.645-7.358-10.366-2.471-2.077-5.622-3.545-9.453-4.404-3.796-.895-10.438-1.343-19.927-1.343h-5.962v61.176zM223.453 139V60.367h15.093c11.172 0 19.031.573 23.579 1.719 4.583 1.11 8.594 2.99 12.031 5.64 4.512 3.473 7.932 7.913 10.259 13.32s3.491 11.637 3.491 18.691c0 7.019-1.163 13.231-3.491 18.638-2.292 5.371-5.711 9.793-10.259 13.267-3.437 2.649-7.358 4.547-11.762 5.693-4.369 1.11-11.19 1.665-20.464 1.665h-3.384-15.093zm105.754-21.924c0-5.045-1.384-9.098-4.151-12.158-2.734-3.092-6.315-4.639-10.742-4.639-4.59 0-8.171 1.416-10.742 4.248s-3.858 6.787-3.858 11.866c0 5.403 1.286 9.57 3.858 12.5 2.604 2.929 6.282 4.394 11.035 4.394 4.557 0 8.122-1.416 10.693-4.248 2.605-2.865 3.907-6.852 3.907-11.963zm7.422-22.754V139h-7.422v-8.105c-1.791 3.255-4.086 5.745-6.885 7.47-2.767 1.693-5.876 2.539-9.326 2.539-6.413 0-11.589-2.197-15.528-6.592-3.906-4.427-5.859-10.27-5.859-17.529 0-7.357 1.904-13.2 5.713-17.529 3.808-4.362 8.903-6.543 15.283-6.543 3.744 0 6.983.846 9.717 2.539 2.767 1.66 4.997 4.15 6.689 7.471v-8.399h7.618zm10.503 6.299h-8.203v-6.299h8.203V76.305h7.813v18.018h8.203v6.299h-8.203V139h-7.813v-38.379zm52.887 16.455c0-5.045-1.383-9.098-4.15-12.158-2.735-3.092-6.315-4.639-10.742-4.639-4.59 0-8.171 1.416-10.743 4.248s-3.857 6.787-3.857 11.866c0 5.403 1.286 9.57 3.857 12.5 2.605 2.929 6.283 4.394 11.036 4.394 4.557 0 8.121-1.416 10.693-4.248 2.604-2.865 3.906-6.852 3.906-11.963zm7.422-22.754V139h-7.422v-8.105c-1.79 3.255-4.085 5.745-6.885 7.47-2.767 1.693-5.875 2.539-9.326 2.539-6.413 0-11.588-2.197-15.527-6.592-3.906-4.427-5.86-10.27-5.86-17.529 0-7.357 1.905-13.2 5.713-17.529 3.809-4.362 8.903-6.543 15.284-6.543 3.743 0 6.982.846 9.716 2.539 2.767 1.66 4.997 4.15 6.69 7.471v-8.399h7.617zm27.465 35.869h5.962c9.668 0 16.364-.411 20.088-1.235 3.724-.859 6.821-2.31 9.292-4.351 3.223-2.685 5.676-6.14 7.358-10.366 1.683-4.261 2.525-9.131 2.525-14.609 0-5.514-.842-10.348-2.525-14.502-1.647-4.189-4.099-7.645-7.358-10.366-2.471-2.077-5.622-3.545-9.453-4.404-3.796-.895-10.438-1.343-19.927-1.343h-5.962v61.176zM425.453 139V60.367h15.093c11.172 0 19.031.573 23.579 1.719 4.583 1.11 8.594 2.99 12.031 5.64 4.512 3.473 7.932 7.913 10.259 13.32s3.491 11.637 3.491 18.691c0 7.019-1.163 13.231-3.491 18.638-2.292 5.371-5.711 9.793-10.259 13.267-3.437 2.649-7.358 4.547-11.762 5.693-4.369 1.11-11.19 1.665-20.464 1.665h-3.384-15.093zm103.263-27.393c-.26-3.938-1.578-6.966-3.955-9.082-2.343-2.148-5.566-3.222-9.668-3.222-3.711 0-6.803 1.123-9.277 3.369-2.474 2.213-3.906 5.192-4.297 8.935h27.197zm8.204 6.202h-35.401v.683c0 4.785 1.367 8.659 4.102 11.621 2.734 2.93 6.299 4.395 10.693 4.395 2.995 0 5.697-.798 8.106-2.393 2.408-1.627 4.541-4.069 6.396-7.324l5.811 3.906c-2.247 4.037-5.111 7.08-8.594 9.131s-7.52 3.076-12.11 3.076c-6.803 0-12.304-2.246-16.503-6.738s-6.299-10.384-6.299-17.676c0-6.998 2.083-12.728 6.25-17.187s9.521-6.689 16.064-6.689c6.608 0 11.833 2.116 15.674 6.348 3.874 4.232 5.811 10.01 5.811 17.334v1.514zm20.269 23.974L535.07 94.322h8.594l13.427 31.201 13.477-31.201h8.594l-21.973 47.461z" fill="#f4f6f6"/></svg>